<svg width="30" height="30" viewBox="0 0 30 30" fill="currentColor" xmlns="http://www.w3.org/2000/svg">
<g clipPath="url(#clip0_275_269)">
<path d="M8.95 13.715C10.1088 12.3478 11.6594 11.3694 13.3923 10.9121C15.1252 10.4548 16.9567 10.5406 18.6392 11.158C20.3217 11.7754 21.774 12.8945 22.7999 14.3641C23.8257 15.8337 24.3755 17.5828 24.375 19.375C24.375 19.8723 24.5725 20.3492 24.9242 20.7008C25.2758 21.0525 25.7527 21.25 26.25 21.25C26.7473 21.25 27.2242 21.0525 27.5758 20.7008C27.9275 20.3492 28.125 19.8723 28.125 19.375C28.125 12.4713 22.5287 6.87501 15.625 6.87501C13.877 6.87286 12.1481 7.23846 10.5506 7.94805C8.95314 8.65763 7.52279 9.69534 6.3525 10.9938L5.91875 8.53751C5.88036 8.29115 5.79322 8.05492 5.66244 7.84264C5.53165 7.63037 5.35983 7.44631 5.15705 7.30123C4.95427 7.15616 4.72459 7.05299 4.48145 6.99776C4.23831 6.94253 3.9866 6.93634 3.74104 6.97957C3.49548 7.0228 3.26101 7.11456 3.05135 7.2495C2.84169 7.38444 2.66104 7.55984 2.51999 7.76544C2.37893 7.97104 2.2803 8.20271 2.22987 8.44689C2.17943 8.69106 2.1782 8.94285 2.22625 9.18751L3.52875 16.575C3.615 17.0638 3.89125 17.5 4.3 17.785C4.80375 18.1375 5.4675 18.2163 6.03125 18.0375L13.0862 16.7925C13.3326 16.7541 13.5688 16.667 13.7811 16.5362C13.9934 16.4054 14.1775 16.2336 14.3225 16.0308C14.4676 15.828 14.5708 15.5983 14.626 15.3552C14.6812 15.1121 14.6874 14.8604 14.6442 14.6148C14.601 14.3692 14.5092 14.1348 14.3743 13.9251C14.2393 13.7154 14.0639 13.5348 13.8583 13.3938C13.6527 13.2527 13.421 13.1541 13.1769 13.1036C12.9327 13.0532 12.6809 13.052 12.4362 13.1L8.95125 13.7138L8.95 13.715Z"/>
</g>
<defs>
<clipPath id="clip0_275_269">
<rect width="30" height="30"/>
</clipPath>
</defs>
</svg>
