<svg width="77" height="97" viewBox="0 0 77 97" fill="none" xmlns="http://www.w3.org/2000/svg">
<path d="M22.9034 57.1902C21.2483 56.8928 19.9509 56.2689 19.5092 55.9941C20.5759 57.0447 23.6307 58.2246 24.0509 58.3701C31.8738 61.6027 43.6243 60.6167 43.5111 60.5036C49.86 60.1545 55.5525 57.438 57.6052 56.1234C56.1937 56.5545 53.3867 57.41 53.4514 57.3842C50.736 58.5802 46.5821 59.2429 46.469 59.2429C37.4048 61.1695 28.4473 59.2052 25.1015 57.9822C24.3634 57.7344 22.8904 57.229 22.9034 57.1902Z" fill="#6F4E37"/>
<path d="M31.502 52.0509C22.5413 47.9778 19.6761 38.2639 19.3636 33.916C19.3636 35.5108 19.3992 38.8716 19.5414 39.5569C21.1416 50.0466 30.4029 54.0066 30.5161 54.0066C39.0889 57.265 46.5336 54.0604 49.1843 52.0509C55.7141 47.6804 56.8617 38.711 56.6193 34.7727C56.3122 47.4444 49.8793 51.0811 49.8147 51.2589C41.6039 57.2068 31.6152 52.0509 31.502 52.0509Z" fill="#6F4E37"/>
<path d="M48.376 29.8117C39.2989 28.0403 35.7689 32.2739 35.1385 34.6121C35.4618 35.5173 37.8377 35.4849 37.8701 35.4849C41.9755 35.4364 42.4603 36.0506 42.4119 35.9537C45.0626 36.8749 44.5454 38.9276 44.3999 38.9276C35.7689 40.7379 29.8532 37.7639 29.7886 37.7962C24.9235 36.1314 24.3578 32.6726 24.3255 32.6726C23.5626 29.9055 31.2163 28.6642 35.1385 28.3894C46.8994 27.5717 52.7542 31.2353 54.224 32.3562C54.2927 32.4076 54.358 32.4591 54.4193 32.5106C54.5547 32.6221 54.6133 32.6817 54.5987 32.6726C54.5435 32.6186 54.4835 32.5646 54.4193 32.5106C54.3661 32.4668 54.301 32.415 54.224 32.3562C52.5278 31.0885 48.6745 29.8714 48.376 29.8117Z" fill="#6F4E37"/>
<path d="M21.4971 56.5287C9.8856 53.1539 9.97827 47.5367 11.476 45.15C12.0417 46.443 15.0804 48.2856 15.0804 48.2371C15.9208 51.2111 19.7084 53.086 21.4971 53.6517C36.3993 60.1492 52.5946 55.5428 52.3521 55.6721C62.3085 54.1043 65.0239 48.7058 64.9754 48.5119C66.2555 45.1642 61.7805 42.3004 59.383 41.287C58.6395 40.8345 57.1719 39.9197 57.2495 39.8809C61.0155 40.9476 63.4723 42.7255 63.3753 42.7255C71.5861 49.7726 59.4638 55.3326 59.383 54.9932C41.1512 62.6545 21.2869 56.3186 21.4971 56.5287Z" fill="#6F4E37"/>
<path d="M11.2498 39.1552C9.91795 47.5728 20.2526 50.6901 25.5863 51.1966C21.9335 50.744 19.1858 48.7398 19.1373 48.7236C15.6946 46.9134 14.7571 44.5374 14.7248 44.5051C13.1732 41.2725 15.3067 39.8502 15.2744 39.7532C17.5857 38.0237 19.4767 39.5916 19.3959 39.5269C17.6988 36.3913 16.0825 36.0519 16.0179 36.0034C13.3671 35.567 11.8155 36.6337 11.2498 39.1552Z" fill="#6F4E37"/>
<path fill-rule="evenodd" clip-rule="evenodd" d="M56.1878 31.1573C54.457 27.8193 47.9114 25.3365 40.1009 25.3365C30.969 25.3365 23.5662 28.7304 23.5662 32.917C23.5662 37.1035 30.969 40.4974 40.1009 40.4974C45.1072 40.4974 49.5939 39.4774 52.6261 37.8659C49.2209 39.7824 43.9206 41.0142 37.9672 41.0142C27.6927 41.0142 19.3636 37.3454 19.3636 32.8196C19.3636 28.2939 27.6927 24.625 37.9672 24.625C46.9487 24.625 54.4436 27.4285 56.1878 31.1573Z" fill="#6F4E37"/>
<path d="M36.2216 13.5191C39.105 16.4543 38.6514 21.703 38.0641 23.9604C40.2106 17.534 38.5652 14.6506 35.9468 11.5958C35.4673 10.9385 34.5083 9.61417 34.5083 9.57538C32.795 6.52058 33.9588 3.99916 33.9588 3.99916C35.0578 0.912037 38.3497 0.529515 39.5673 0.766571C39.6858 0.766573 39.8809 0.72132 39.7128 0.540295C35.3164 -1.2538 33.3769 1.99496 33.3769 1.99496C28.9644 8.16921 36.2862 13.5515 36.2216 13.5191Z" fill="#6F4E37"/>
<path d="M42.8645 18.1902C45.8385 12.1388 43.0477 8.97735 41.2806 8.15304C42.8484 8.15304 44.303 9.57538 44.4485 9.94713C47.6165 15.0385 42.8645 20.8733 42.8645 20.7278C39.8456 24.5166 40.069 27.8824 40.217 28.4293C40.2265 28.4537 40.2362 28.478 40.2461 28.5022C40.2376 28.4926 40.2275 28.468 40.217 28.4293C38.7696 24.7214 42.0202 19.9084 42.8645 18.1902Z" fill="#6F4E37"/>
<path d="M15.2832 78.2093V79.3301H10.9298V78.2093H15.2832ZM11.3296 71.1301V79.3301H9.91605V71.1301H11.3296ZM14.7144 74.5543V75.6581H10.9298V74.5543H14.7144ZM15.2551 71.1301V72.2565H10.9298V71.1301H15.2551ZM21.8624 78.2093V79.3301H17.7455V78.2093H21.8624ZM18.1397 71.1301V79.3301H16.7261V71.1301H18.1397ZM24.7526 71.1301V79.3301H23.339V71.1301H24.7526ZM31.2259 74.8696L32.6395 73.9179C32.876 73.7602 33.045 73.6062 33.1464 73.456C33.2477 73.3021 33.2984 73.1106 33.2984 72.8816C33.2984 72.6864 33.2233 72.5061 33.0731 72.3409C32.923 72.1757 32.7108 72.0931 32.4367 72.0931C32.2453 72.0931 32.0838 72.1382 31.9524 72.2283C31.821 72.3147 31.7215 72.431 31.6539 72.5775C31.5901 72.7201 31.5582 72.8797 31.5582 73.0562C31.5582 73.2251 31.6013 73.3997 31.6877 73.5799C31.7741 73.7564 31.8923 73.9423 32.0425 74.1375C32.1927 74.329 32.3616 74.5355 32.5494 74.757L36.4241 79.3301H34.8528L31.6877 75.6074C31.4136 75.277 31.1714 74.9748 30.9612 74.7007C30.7509 74.4228 30.5876 74.1544 30.4712 73.8953C30.3548 73.6325 30.2966 73.3622 30.2966 73.0843C30.2966 72.6563 30.3849 72.2884 30.5613 71.9805C30.7378 71.6726 30.9875 71.4361 31.3104 71.2709C31.6333 71.1019 32.0106 71.0174 32.4424 71.0174C32.8591 71.0174 33.2177 71.1019 33.5181 71.2709C33.8222 71.4361 34.055 71.6557 34.2164 71.9298C34.3816 72.2039 34.4642 72.5043 34.4642 72.8309C34.4642 73.09 34.4173 73.3265 34.3234 73.5405C34.2295 73.7545 34.1 73.9498 33.9348 74.1262C33.7696 74.3027 33.5781 74.4698 33.3604 74.6275L31.6426 75.8777C31.4437 76.0392 31.2953 76.195 31.1977 76.3452C31.1039 76.4916 31.0419 76.6268 31.0119 76.7507C30.9818 76.8746 30.9668 76.9835 30.9668 77.0773C30.9668 77.3176 31.0175 77.5354 31.1189 77.7306C31.224 77.9259 31.3761 78.0817 31.5751 78.1981C31.7778 78.3107 32.0237 78.367 32.3128 78.367C32.6245 78.367 32.9267 78.2976 33.2196 78.1587C33.5124 78.016 33.7752 77.8151 34.008 77.556C34.2408 77.297 34.4248 76.9872 34.5599 76.6268C34.6989 76.2663 34.7683 75.8665 34.7683 75.4272H35.9398C35.9398 75.8252 35.9003 76.2025 35.8215 76.5592C35.7464 76.9159 35.6244 77.2463 35.4554 77.5504C35.2902 77.8545 35.0724 78.1267 34.8021 78.367C34.7758 78.3933 34.7458 78.4271 34.712 78.4684C34.682 78.5059 34.6519 78.5379 34.6219 78.5641C34.299 78.8608 33.9367 79.0823 33.535 79.2287C33.137 79.3714 32.7127 79.4427 32.2621 79.4427C31.7177 79.4427 31.2465 79.3432 30.8486 79.1442C30.4506 78.9452 30.1427 78.6712 29.9249 78.322C29.7109 77.9728 29.6039 77.5729 29.6039 77.1224C29.6039 76.7882 29.6734 76.4954 29.8123 76.2438C29.9512 75.9885 30.1408 75.752 30.3811 75.5342C30.6252 75.3127 30.9067 75.0912 31.2259 74.8696ZM45.9442 78.2093V79.3301H41.8273V78.2093H45.9442ZM42.2215 71.1301V79.3301H40.8079V71.1301H42.2215ZM51.6898 71.1301H53.0978V76.6099C53.0978 77.2331 52.9626 77.755 52.6923 78.1755C52.422 78.5961 52.054 78.9133 51.5884 79.1273C51.1266 79.3376 50.6104 79.4427 50.0397 79.4427C49.4502 79.4427 48.9246 79.3376 48.4628 79.1273C48.001 78.9133 47.6368 78.5961 47.3702 78.1755C47.1074 77.755 46.976 77.2331 46.976 76.6099V71.1301H48.3839V76.6099C48.3839 77.0041 48.4515 77.3289 48.5867 77.5842C48.7218 77.8358 48.9133 78.0216 49.1611 78.1418C49.4089 78.2619 49.7018 78.322 50.0397 78.322C50.3776 78.322 50.6686 78.2619 50.9126 78.1418C51.1604 78.0216 51.3519 77.8358 51.4871 77.5842C51.6222 77.3289 51.6898 77.0041 51.6898 76.6099V71.1301ZM60.0599 78.2093V79.3301H55.943V78.2093H60.0599ZM56.3372 71.1301V79.3301H54.9236V71.1301H56.3372ZM65.8055 71.1301H67.2135V76.6099C67.2135 77.2331 67.0783 77.755 66.808 78.1755C66.5377 78.5961 66.1697 78.9133 65.7041 79.1273C65.2423 79.3376 64.7261 79.4427 64.1554 79.4427C63.5659 79.4427 63.0403 79.3376 62.5785 79.1273C62.1167 78.9133 61.7525 78.5961 61.4859 78.1755C61.2231 77.755 61.0917 77.2331 61.0917 76.6099V71.1301H62.4996V76.6099C62.4996 77.0041 62.5672 77.3289 62.7024 77.5842C62.8375 77.8358 63.029 78.0216 63.2768 78.1418C63.5246 78.2619 63.8175 78.322 64.1554 78.322C64.4933 78.322 64.7843 78.2619 65.0283 78.1418C65.2761 78.0216 65.4676 77.8358 65.6028 77.5842C65.7379 77.3289 65.8055 77.0041 65.8055 76.6099V71.1301Z" fill="#6F4E37"/>
<path opacity="0.3" d="M6.99467 84.77C7.32445 84.77 7.63968 84.8282 7.94036 84.9446C8.24103 85.0578 8.4916 85.2243 8.69205 85.4441L9.87537 84.5033L8.52231 87.4034L8.40592 85.9921C8.29923 85.8628 8.18607 85.761 8.06645 85.6866C7.94682 85.6122 7.83043 85.5573 7.71727 85.5217C7.60735 85.4829 7.50712 85.4587 7.41659 85.449C7.3293 85.4393 7.2614 85.4344 7.21291 85.4344C6.95103 85.4344 6.70693 85.5007 6.48061 85.6333C6.25752 85.7658 6.06354 85.9566 5.89865 86.2055C5.73376 86.4512 5.60282 86.7487 5.50583 87.0979C5.41207 87.447 5.36519 87.8366 5.36519 88.2666C5.36519 88.6966 5.41207 89.0894 5.50583 89.4451C5.60282 89.8007 5.73214 90.1063 5.8938 90.3617C6.05869 90.6171 6.25106 90.8159 6.47091 90.9582C6.69076 91.0972 6.92516 91.1667 7.17411 91.1667C7.42629 91.1667 7.64291 91.1053 7.82396 90.9824C8.00502 90.8563 8.15374 90.6979 8.27013 90.5072C8.38652 90.3164 8.47059 90.1079 8.52231 89.8816C8.57728 89.6552 8.60476 89.4386 8.60476 89.2317C8.60476 89.1864 8.60476 89.1444 8.60476 89.1056C8.60476 89.0636 8.60153 89.0199 8.59506 88.9747C8.80521 89.1137 8.95878 89.2721 9.05578 89.4499C9.156 89.6245 9.20612 89.8056 9.20612 89.9931C9.20612 90.1677 9.16247 90.3536 9.07518 90.5508C8.99112 90.7448 8.86502 90.9258 8.6969 91.094C8.52878 91.2589 8.32186 91.3963 8.07615 91.5062C7.83043 91.6129 7.54592 91.6662 7.22261 91.6662C6.96072 91.6662 6.70046 91.6387 6.44181 91.5838C6.18316 91.5288 5.93583 91.4448 5.69981 91.3316C5.4638 91.2152 5.24395 91.0681 5.04026 90.8903C4.83657 90.7125 4.66037 90.5007 4.51165 90.255C4.36292 90.0093 4.24492 89.7264 4.15762 89.4063C4.07356 89.0862 4.03153 88.729 4.03153 88.3345C4.03153 87.9498 4.07033 87.5957 4.14792 87.2724C4.22875 86.9459 4.33868 86.6517 4.4777 86.3898C4.61996 86.1247 4.78484 85.8919 4.97236 85.6914C5.16312 85.4878 5.3668 85.318 5.58342 85.1822C5.80327 85.0464 6.03282 84.9446 6.27207 84.8767C6.51456 84.8056 6.75542 84.77 6.99467 84.77ZM14.3332 88.5333C14.3332 88.7047 14.3235 88.889 14.3041 89.0862C14.2847 89.2834 14.2556 89.4839 14.2168 89.6876C14.1812 89.8913 14.1376 90.0917 14.0858 90.2889C14.0373 90.4829 13.984 90.6624 13.9258 90.8272L14.9588 91.5547L13.1305 91.4771L13.242 90.8806C13.048 91.1231 12.8233 91.309 12.5679 91.4383C12.3157 91.5644 12.0231 91.6404 11.6901 91.6662C11.4185 91.6856 11.1809 91.6662 10.9772 91.608C10.7768 91.5531 10.6086 91.4674 10.4728 91.351C10.3403 91.2314 10.2417 91.0859 10.177 90.9145C10.1124 90.7399 10.08 90.546 10.08 90.3326C10.08 90.1354 10.1285 89.9446 10.2255 89.7603C10.3225 89.5728 10.4615 89.4079 10.6426 89.2656C10.8269 89.1234 11.0516 89.0102 11.3167 88.9262C11.5818 88.8389 11.8825 88.7952 12.2187 88.7952C12.3739 88.7952 12.5517 88.8098 12.7522 88.8389C12.9559 88.868 13.1482 88.9294 13.3293 89.0232C13.3131 88.8259 13.2824 88.6255 13.2372 88.4218C13.1951 88.2149 13.1321 88.0274 13.048 87.8592C12.964 87.6911 12.854 87.5553 12.7182 87.4519C12.5857 87.3452 12.4192 87.2918 12.2187 87.2918C12.0474 87.2918 11.8809 87.3274 11.7192 87.3985C11.5576 87.4697 11.4056 87.5715 11.2633 87.7041C11.1243 87.8366 10.9982 87.9983 10.8851 88.189C10.7719 88.3798 10.6765 88.5948 10.5989 88.834L10.1916 86.4577L10.8075 87.4034C10.9594 87.2159 11.113 87.0671 11.2682 86.9572C11.4234 86.8441 11.577 86.7584 11.7289 86.7002C11.8841 86.6387 12.0328 86.5983 12.1751 86.5789C12.3206 86.5595 12.4596 86.5498 12.5921 86.5498C12.8411 86.5628 13.0706 86.6145 13.2808 86.705C13.4942 86.7923 13.6785 86.92 13.8337 87.0882C13.9889 87.253 14.1101 87.4567 14.1974 87.6992C14.2879 87.9417 14.3332 88.2197 14.3332 88.5333ZM13.3293 90.0852C13.3358 89.9947 13.3406 89.9074 13.3438 89.8234C13.3471 89.7393 13.3487 89.6569 13.3487 89.576V89.5178C13.2323 89.4726 13.1143 89.4386 12.9947 89.416C12.8783 89.3901 12.77 89.3723 12.6697 89.3626C12.5695 89.3497 12.4838 89.3432 12.4127 89.3432C12.3448 89.34 12.2996 89.3384 12.2769 89.3384C12.0926 89.3449 11.9326 89.3788 11.7968 89.4402C11.661 89.5017 11.5479 89.5793 11.4573 89.673C11.37 89.7635 11.3038 89.8654 11.2585 89.9785C11.2165 90.0917 11.1954 90.2032 11.1954 90.3132C11.1954 90.5621 11.2553 90.7513 11.3749 90.8806C11.4977 91.0067 11.6756 91.0697 11.9083 91.0697C12.0635 91.0697 12.2106 91.0422 12.3497 90.9873C12.4887 90.9323 12.618 90.8596 12.7376 90.769C12.8605 90.6753 12.9704 90.5702 13.0674 90.4538C13.1676 90.3342 13.2549 90.2113 13.3293 90.0852ZM16.8705 87.6604V87.8011C16.8705 88.0823 16.8673 88.3539 16.8608 88.6158C16.8544 88.8744 16.8463 89.1299 16.8366 89.382C16.8301 89.6342 16.8236 89.8832 16.8172 90.1289C16.8107 90.3746 16.8059 90.6219 16.8026 90.8709L17.9229 91.4965H15.3138L16.1867 90.9C16.1156 90.2469 16.059 89.6552 16.017 89.125C15.9782 88.5915 15.9491 88.1438 15.9297 87.7817L15.2216 87.8592L15.8909 86.7972C15.9135 86.4933 15.9604 86.2136 16.0315 85.9582C16.1027 85.6995 16.2029 85.4764 16.3322 85.2889C16.4648 85.1014 16.6297 84.9559 16.8269 84.8525C17.0241 84.7458 17.2617 84.6924 17.5398 84.6924C17.6368 84.6924 17.737 84.7021 17.8405 84.7215C17.9439 84.7377 18.0441 84.7635 18.1411 84.7991C18.2414 84.8347 18.3351 84.8799 18.4224 84.9349C18.5097 84.9899 18.5824 85.0545 18.6406 85.1289L19.4263 84.5518L18.66 86.4916C18.6536 86.2944 18.6277 86.1263 18.5824 85.9873C18.5404 85.845 18.4871 85.727 18.4224 85.6333C18.361 85.5395 18.2931 85.4667 18.2187 85.415C18.1444 85.3601 18.0749 85.3196 18.0102 85.2938C17.9455 85.2647 17.8906 85.2469 17.8453 85.2404C17.8 85.2307 17.7742 85.2259 17.7677 85.2259C17.6125 85.2356 17.4832 85.2857 17.3797 85.3762C17.2763 85.4667 17.1906 85.5912 17.1227 85.7496C17.058 85.9081 17.0079 86.0972 16.9724 86.3171C16.9368 86.5337 16.9093 86.7729 16.8899 87.0348H18.66L18.3012 87.481L16.8705 87.6604ZM20.0917 89.7749C20.1337 89.9559 20.1903 90.1337 20.2614 90.3083C20.3325 90.4797 20.4198 90.6333 20.5233 90.769C20.6267 90.9048 20.7464 91.0148 20.8822 91.0988C21.0179 91.1829 21.1715 91.2249 21.3429 91.2249C21.5692 91.2249 21.7664 91.178 21.9345 91.0843C22.1027 90.9905 22.2401 90.8725 22.3468 90.7302C22.4534 90.5848 22.5278 90.4263 22.5698 90.255C22.6119 90.0804 22.6199 89.9139 22.5941 89.7555C22.6846 89.791 22.759 89.8379 22.8172 89.8961C22.8786 89.9543 22.9255 90.019 22.9578 90.0901C22.9934 90.158 23.0176 90.2291 23.0306 90.3035C23.0435 90.3746 23.05 90.4441 23.05 90.512C23.05 90.6672 23.0047 90.8175 22.9142 90.963C22.8236 91.1053 22.6959 91.233 22.531 91.3462C22.3694 91.4561 22.177 91.545 21.9539 91.6129C21.7308 91.6808 21.4867 91.7147 21.2216 91.7147C20.866 91.7147 20.5475 91.6452 20.2662 91.5062C19.9882 91.3672 19.7522 91.1796 19.5582 90.9436C19.3642 90.7044 19.2155 90.4247 19.112 90.1046C19.0086 89.7846 18.9568 89.4435 18.9568 89.0814C18.9568 88.7128 19.0086 88.3733 19.112 88.0629C19.2155 87.7493 19.3674 87.4826 19.5679 87.2627C19.7716 87.0429 20.0205 86.8764 20.3147 86.7632C20.609 86.6501 20.9484 86.6048 21.3332 86.6274C21.5983 86.6468 21.8424 86.7228 22.0655 86.8554C22.2886 86.9879 22.4825 87.1593 22.6474 87.3694C22.8156 87.5764 22.9497 87.814 23.05 88.0823C23.1534 88.3507 23.2165 88.6303 23.2391 88.9213L20.0917 89.7749ZM19.9995 88.9941C19.9995 89.0393 19.9995 89.0846 19.9995 89.1299C19.9995 89.1719 20.0028 89.2155 20.0092 89.2608L22.1382 88.4849C22.0671 88.2521 21.9863 88.0532 21.8957 87.8883C21.8084 87.7202 21.7163 87.5828 21.6193 87.4761C21.5223 87.3694 21.4237 87.2918 21.3235 87.2433C21.2265 87.1916 21.1327 87.1657 21.0422 87.1657C20.9064 87.1657 20.7868 87.1916 20.6833 87.2433C20.5799 87.2951 20.4893 87.3662 20.4117 87.4567C20.3374 87.544 20.2727 87.6475 20.2178 87.7671C20.166 87.8867 20.124 88.0144 20.0917 88.1502C20.0593 88.286 20.0351 88.4267 20.0189 88.5721C20.006 88.7144 19.9995 88.855 19.9995 88.9941ZM31.049 88.5333C31.049 88.7047 31.0393 88.889 31.0199 89.0862C31.0005 89.2834 30.9714 89.4839 30.9326 89.6876C30.897 89.8913 30.8534 90.0917 30.8016 90.2889C30.7532 90.4829 30.6998 90.6624 30.6416 90.8272L31.6746 91.5547L29.8463 91.4771L29.9578 90.8806C29.7638 91.1231 29.5391 91.309 29.2837 91.4383C29.0315 91.5644 28.7389 91.6404 28.4059 91.6662C28.1343 91.6856 27.8967 91.6662 27.693 91.608C27.4926 91.5531 27.3244 91.4674 27.1887 91.351C27.0561 91.2314 26.9575 91.0859 26.8928 90.9145C26.8282 90.7399 26.7958 90.546 26.7958 90.3326C26.7958 90.1354 26.8443 89.9446 26.9413 89.7603C27.0383 89.5728 27.1773 89.4079 27.3584 89.2656C27.5427 89.1234 27.7674 89.0102 28.0325 88.9262C28.2976 88.8389 28.5983 88.7952 28.9345 88.7952C29.0897 88.7952 29.2675 88.8098 29.468 88.8389C29.6717 88.868 29.864 88.9294 30.0451 89.0232C30.0289 88.8259 29.9982 88.6255 29.953 88.4218C29.9109 88.2149 29.8479 88.0274 29.7638 87.8592C29.6798 87.6911 29.5698 87.5553 29.434 87.4519C29.3015 87.3452 29.135 87.2918 28.9345 87.2918C28.7632 87.2918 28.5967 87.3274 28.435 87.3985C28.2734 87.4697 28.1214 87.5715 27.9791 87.7041C27.8401 87.8366 27.714 87.9983 27.6009 88.189C27.4877 88.3798 27.3923 88.5948 27.3147 88.834L26.9074 86.4577L27.5233 87.4034C27.6752 87.2159 27.8288 87.0671 27.984 86.9572C28.1392 86.8441 28.2928 86.7584 28.4447 86.7002C28.5999 86.6387 28.7486 86.5983 28.8909 86.5789C29.0364 86.5595 29.1754 86.5498 29.308 86.5498C29.5569 86.5628 29.7865 86.6145 29.9966 86.705C30.21 86.7923 30.3943 86.92 30.5495 87.0882C30.7047 87.253 30.8259 87.4567 30.9132 87.6992C31.0037 87.9417 31.049 88.2197 31.049 88.5333ZM30.0451 90.0852C30.0516 89.9947 30.0564 89.9074 30.0597 89.8234C30.0629 89.7393 30.0645 89.6569 30.0645 89.576V89.5178C29.9481 89.4726 29.8301 89.4386 29.7105 89.416C29.5941 89.3901 29.4858 89.3723 29.3855 89.3626C29.2853 89.3497 29.1996 89.3432 29.1285 89.3432C29.0606 89.34 29.0154 89.3384 28.9927 89.3384C28.8084 89.3449 28.6484 89.3788 28.5126 89.4402C28.3768 89.5017 28.2637 89.5793 28.1731 89.673C28.0858 89.7635 28.0196 89.8654 27.9743 89.9785C27.9323 90.0917 27.9113 90.2032 27.9113 90.3132C27.9113 90.5621 27.9711 90.7513 28.0907 90.8806C28.2135 91.0067 28.3914 91.0697 28.6242 91.0697C28.7793 91.0697 28.9264 91.0422 29.0655 90.9873C29.2045 90.9323 29.3338 90.8596 29.4534 90.769C29.5763 90.6753 29.6862 90.5702 29.7832 90.4538C29.8834 90.3342 29.9707 90.2113 30.0451 90.0852ZM36.5883 88.543C36.5883 88.7241 36.5802 88.9149 36.564 89.1153C36.5478 89.3158 36.5236 89.5162 36.4913 89.7167C36.4589 89.9171 36.4185 90.1127 36.37 90.3035C36.3248 90.4942 36.2714 90.6688 36.21 90.8272L37.1654 91.1376L34.6387 91.6323L35.4971 90.9873C35.565 90.7383 35.6102 90.4991 35.6329 90.2695C35.6587 90.04 35.6717 89.8234 35.6717 89.6197C35.6717 89.4968 35.6668 89.3578 35.6571 89.2026C35.6507 89.0442 35.6329 88.8841 35.6038 88.7225C35.5779 88.5608 35.5391 88.4024 35.4874 88.2472C35.4389 88.092 35.3742 87.9546 35.2934 87.835C35.2126 87.7121 35.1124 87.6151 34.9927 87.544C34.8763 87.4697 34.7357 87.4325 34.5708 87.4325C34.3801 87.4325 34.1861 87.4955 33.9888 87.6216C33.7916 87.7477 33.609 87.9336 33.4408 88.1793V90.8612L34.241 91.4334L31.8404 91.6032L32.4758 90.9L32.8152 87.3743L31.7823 86.8651L33.4408 86.7002V87.4325C33.5346 87.3032 33.6381 87.1819 33.7512 87.0688C33.8644 86.9556 33.984 86.8586 34.1101 86.7778C34.2362 86.6937 34.3671 86.6291 34.5029 86.5838C34.6419 86.5353 34.7842 86.511 34.9297 86.511C35.211 86.511 35.4551 86.5628 35.662 86.6662C35.8689 86.7697 36.0403 86.9136 36.176 87.0979C36.3151 87.2789 36.4185 87.4939 36.4864 87.7429C36.5543 87.9886 36.5883 88.2553 36.5883 88.543ZM41.6862 90.9485L42.758 91.3462L41.0024 91.6856L41.0218 90.7399C40.9442 90.8725 40.8553 91.0002 40.7551 91.1231C40.6549 91.2427 40.5417 91.3494 40.4156 91.4431C40.2928 91.5369 40.1553 91.6113 40.0034 91.6662C39.8514 91.7244 39.6865 91.7535 39.5087 91.7535C39.2565 91.7471 39.0173 91.6905 38.791 91.5838C38.5679 91.4771 38.3707 91.3251 38.1993 91.1279C38.0312 90.9275 37.897 90.6834 37.7968 90.3956C37.6998 90.1046 37.6513 89.7732 37.6513 89.4014C37.6513 88.9488 37.7047 88.5527 37.8113 88.2133C37.918 87.8738 38.0635 87.5909 38.2478 87.3646C38.4321 87.1383 38.6471 86.9685 38.8928 86.8554C39.1418 86.7422 39.4069 86.6856 39.6882 86.6856C39.9727 86.6856 40.2362 86.7471 40.4787 86.8699C40.7244 86.9895 40.9248 87.1512 41.08 87.3549L41.0994 86.2104L39.9161 85.7642L42.3118 85.3374L41.6862 90.9485ZM39.6591 91.1376C39.6688 91.1376 39.7011 91.1344 39.7561 91.1279C39.811 91.1215 39.8789 91.1053 39.9597 91.0794C40.0406 91.0503 40.1295 91.0083 40.2265 90.9533C40.3267 90.8984 40.4253 90.8224 40.5223 90.7254C40.6225 90.6252 40.7179 90.5007 40.8084 90.352C40.899 90.2032 40.9766 90.0222 41.0412 89.8088L41.0703 88.2278C41.0218 88.1114 40.9604 87.9999 40.886 87.8932C40.8149 87.7865 40.7341 87.6927 40.6435 87.6119C40.5563 87.5279 40.4576 87.4616 40.3477 87.4131C40.241 87.3613 40.1279 87.3355 40.0082 87.3355C39.7852 87.3355 39.5944 87.3904 39.436 87.5004C39.2808 87.6103 39.1515 87.7623 39.048 87.9562C38.9478 88.1502 38.8734 88.3798 38.8249 88.6449C38.7797 88.91 38.757 89.1978 38.757 89.5081C38.757 89.7377 38.7764 89.9527 38.8152 90.1531C38.854 90.3504 38.9106 90.5217 38.985 90.6672C39.0593 90.8127 39.1531 90.9275 39.2662 91.0115C39.3794 91.0956 39.5103 91.1376 39.6591 91.1376ZM51.5184 86.5692C51.5184 86.8667 51.4748 87.1172 51.3875 87.3209C51.3002 87.5246 51.1838 87.6927 51.0383 87.8253C50.8928 87.9579 50.7263 88.0613 50.5388 88.1357C50.3513 88.21 50.1589 88.2634 49.9617 88.2957C50.2106 88.3862 50.4127 88.501 50.5679 88.64C50.7263 88.7791 50.8492 88.9246 50.9365 89.0765C51.027 89.2252 51.0884 89.3723 51.1208 89.5178C51.1531 89.6601 51.1692 89.7797 51.1692 89.8767C51.1692 90.1192 51.1337 90.331 51.0626 90.512C50.9914 90.6931 50.8944 90.8483 50.7716 90.9776C50.652 91.1069 50.5113 91.2136 50.3497 91.2977C50.188 91.3817 50.015 91.4496 49.8307 91.5013C49.6497 91.5498 49.4622 91.5838 49.2682 91.6032C49.0774 91.6226 48.8915 91.6323 48.7105 91.6323C48.649 91.6323 48.586 91.6307 48.5213 91.6274C48.4599 91.6274 48.3823 91.6242 48.2886 91.6177C48.1948 91.6145 48.0768 91.608 47.9345 91.5983C47.7955 91.5886 47.6161 91.5757 47.3962 91.5595C47.1764 91.5434 46.9096 91.524 46.596 91.5013C46.2824 91.4755 45.9074 91.4464 45.4709 91.414L46.6445 90.6914L46.9888 85.5654L45.7182 84.7409C46.3164 84.7474 46.8401 84.7538 47.2895 84.7603C47.7422 84.7668 48.1237 84.7732 48.434 84.7797C48.7961 84.7862 49.1065 84.7926 49.3652 84.7991C49.6174 84.7991 49.8712 84.8379 50.1266 84.9155C50.3852 84.9899 50.6164 85.1014 50.8201 85.2501C51.027 85.3989 51.1951 85.5848 51.3244 85.8078C51.4538 86.0277 51.5184 86.2815 51.5184 86.5692ZM50.2381 86.5983C50.2381 86.5692 50.2333 86.5191 50.2236 86.448C50.2171 86.3736 50.1945 86.2912 50.1557 86.2007C50.1201 86.1069 50.0635 86.0099 49.9859 85.9097C49.9083 85.8062 49.8 85.7125 49.661 85.6284C49.522 85.5443 49.3458 85.4748 49.1324 85.4199C48.9222 85.3617 48.6652 85.331 48.3613 85.3277C48.1996 85.3277 48.0412 85.3374 47.886 85.3568V88.0387C47.9701 88.0452 48.0541 88.0484 48.1382 88.0484C48.2223 88.0484 48.2966 88.0484 48.3613 88.0484C48.6717 88.0484 48.9336 88.0177 49.1469 87.9562C49.3603 87.8948 49.5365 87.8156 49.6756 87.7186C49.8146 87.6216 49.9213 87.5165 49.9956 87.4034C50.0732 87.287 50.1298 87.1754 50.1654 87.0688C50.2009 86.9588 50.2219 86.8618 50.2284 86.7778C50.2349 86.6937 50.2381 86.6339 50.2381 86.5983ZM48.3904 88.5673C48.3193 88.5673 48.2384 88.5673 48.1479 88.5673C48.0574 88.5673 47.9701 88.5705 47.886 88.577V90.9097C48.0315 90.9355 48.1657 90.9533 48.2886 90.963C48.4114 90.9727 48.5343 90.9776 48.6571 90.9776C48.822 90.9776 48.9853 90.9598 49.1469 90.9242C49.3118 90.8854 49.4589 90.8208 49.5883 90.7302C49.7208 90.6365 49.8275 90.512 49.9083 90.3568C49.9892 90.2016 50.0296 90.0076 50.0296 89.7749C50.0296 89.6552 50.0021 89.5243 49.9471 89.382C49.8922 89.2398 49.8016 89.1088 49.6756 88.9892C49.5495 88.8696 49.3813 88.7694 49.1712 88.6885C48.961 88.6077 48.7008 88.5673 48.3904 88.5673ZM52.1692 91.6032L52.9306 91.0067L52.7658 87.6604L51.8686 87.0736L53.9539 86.7196L53.5805 90.609L54.6232 91.2589L52.1692 91.6032ZM54.0073 85.546C54.0073 85.643 53.9879 85.7351 53.9491 85.8224C53.9103 85.9065 53.8569 85.9824 53.789 86.0503C53.7211 86.115 53.6435 86.1667 53.5562 86.2055C53.469 86.2411 53.3768 86.2589 53.2798 86.2589C53.1764 86.2589 53.0794 86.2411 52.9888 86.2055C52.9015 86.1667 52.8256 86.115 52.7609 86.0503C52.6962 85.9824 52.6445 85.9065 52.6057 85.8224C52.5669 85.7351 52.5475 85.643 52.5475 85.546C52.5475 85.4457 52.5669 85.3536 52.6057 85.2695C52.6445 85.1822 52.6962 85.1063 52.7609 85.0416C52.8256 84.9769 52.9015 84.9268 52.9888 84.8913C53.0794 84.8525 53.1764 84.8331 53.2798 84.8331C53.3768 84.8331 53.469 84.8525 53.5562 84.8913C53.6435 84.9268 53.7211 84.9769 53.789 85.0416C53.8569 85.1063 53.9103 85.1822 53.9491 85.2695C53.9879 85.3536 54.0073 85.4457 54.0073 85.546ZM56.9035 86.6177C57.0263 86.6177 57.1508 86.6291 57.2769 86.6517C57.403 86.6711 57.5259 86.7018 57.6455 86.7438C57.7683 86.7826 57.8831 86.8311 57.9898 86.8893C58.0997 86.9443 58.1983 87.0057 58.2856 87.0736L59.081 86.094L58.7221 88.514C58.6833 88.3458 58.6154 88.1809 58.5184 88.0193C58.4214 87.8544 58.3002 87.7073 58.1547 87.578C58.0124 87.4486 57.8476 87.3452 57.66 87.2676C57.4725 87.1868 57.2672 87.1463 57.0441 87.1463C56.9213 87.1463 56.8033 87.1609 56.6901 87.19C56.5769 87.2159 56.4767 87.2595 56.3894 87.3209C56.3054 87.3824 56.2375 87.46 56.1857 87.5537C56.1372 87.6475 56.113 87.759 56.113 87.8883C56.113 88.0435 56.155 88.1696 56.2391 88.2666C56.3264 88.3636 56.4395 88.4461 56.5786 88.514C56.7176 88.5786 56.876 88.6352 57.0538 88.6837C57.2316 88.729 57.4143 88.7774 57.6018 88.8292C57.7894 88.8809 57.972 88.9423 58.1498 89.0135C58.3277 89.0814 58.4861 89.1703 58.6251 89.2802C58.7641 89.3901 58.8757 89.5275 58.9597 89.6924C59.047 89.8541 59.0907 90.0545 59.0907 90.2938C59.0907 90.5621 59.0373 90.7917 58.9306 90.9824C58.8272 91.1699 58.693 91.3251 58.5281 91.448C58.3632 91.5676 58.1806 91.6549 57.9801 91.7099C57.7797 91.7648 57.5841 91.7923 57.3933 91.7923C57.2381 91.7923 57.0829 91.7762 56.9277 91.7438C56.7725 91.7115 56.6222 91.6662 56.4767 91.608C56.3312 91.5498 56.1922 91.4803 56.0596 91.3995C55.9303 91.3187 55.8123 91.2314 55.7056 91.1376L54.9685 92.1221L55.1964 89.7167C55.2999 89.9365 55.4243 90.1418 55.5698 90.3326C55.7153 90.5233 55.877 90.6898 56.0548 90.8321C56.2326 90.9711 56.4234 91.081 56.6271 91.1619C56.8307 91.2395 57.0425 91.2783 57.2624 91.2783C57.5178 91.2783 57.7215 91.2249 57.8734 91.1182C58.0286 91.0083 58.1062 90.8531 58.1062 90.6527C58.1062 90.5233 58.0626 90.4166 57.9753 90.3326C57.8912 90.2453 57.778 90.1693 57.6358 90.1046C57.4968 90.04 57.3383 89.9818 57.1605 89.9301C56.9827 89.8783 56.8 89.8217 56.6125 89.7603C56.425 89.6989 56.2423 89.6278 56.0645 89.5469C55.8867 89.4629 55.7266 89.3594 55.5844 89.2366C55.4454 89.1105 55.3322 88.9585 55.2449 88.7807C55.1608 88.5996 55.1188 88.3814 55.1188 88.126C55.1188 87.9061 55.1511 87.7154 55.2158 87.5537C55.2805 87.3921 55.3645 87.2563 55.468 87.1463C55.5747 87.0332 55.6927 86.9427 55.822 86.8748C55.9546 86.8036 56.0871 86.7503 56.2197 86.7147C56.3522 86.6759 56.4783 86.6501 56.598 86.6371C56.7176 86.6242 56.8194 86.6177 56.9035 86.6177ZM60.2216 89.4305C60.2216 89.1266 60.2523 88.8243 60.3138 88.5237C60.3784 88.2197 60.4479 87.9417 60.5223 87.6895L59.6833 87.7429L62.0499 85.158C61.8624 85.7496 61.7105 86.2831 61.5941 86.7584L63.4806 86.9184L63.2333 87.5004L61.4049 87.6313C61.3597 87.8673 61.3241 88.0775 61.2982 88.2618C61.2756 88.4428 61.2562 88.5964 61.24 88.7225C61.2239 88.8712 61.2126 89.0005 61.2061 89.1105C61.2061 89.4338 61.2255 89.7247 61.2643 89.9834C61.3031 90.242 61.3629 90.4635 61.4437 90.6478C61.5278 90.8289 61.6329 90.9695 61.759 91.0697C61.8883 91.1667 62.0419 91.2152 62.2197 91.2152C62.3846 91.2152 62.522 91.1829 62.6319 91.1182C62.7451 91.0503 62.8356 90.9646 62.9035 90.8612C62.9714 90.7545 63.0199 90.6365 63.049 90.5072C63.0781 90.3746 63.0926 90.2437 63.0926 90.1143C63.0926 89.9947 63.0829 89.8783 63.0635 89.7652C63.2025 89.8363 63.3076 89.9511 63.3787 90.1095C63.4531 90.2647 63.4903 90.4344 63.4903 90.6187C63.4903 90.8095 63.458 90.9776 63.3933 91.1231C63.3319 91.2686 63.2462 91.3914 63.1363 91.4916C63.0263 91.5886 62.897 91.663 62.7483 91.7147C62.5996 91.7665 62.4395 91.7923 62.2682 91.7923C62.1647 91.7923 62.0419 91.781 61.8996 91.7584C61.7606 91.7357 61.6151 91.6937 61.4631 91.6323C61.3112 91.5741 61.1608 91.49 61.0121 91.3801C60.8634 91.2702 60.7308 91.1279 60.6144 90.9533C60.4981 90.7787 60.4027 90.567 60.3283 90.318C60.2572 90.0658 60.2216 89.77 60.2216 89.4305ZM67.4195 88.2472C67.3904 88.1276 67.3484 88.0258 67.2934 87.9417C67.2417 87.8576 67.1819 87.7881 67.114 87.7332C67.0493 87.675 66.9798 87.6313 66.9054 87.6022C66.8311 87.5699 66.7567 87.5456 66.6823 87.5295C66.5078 87.4939 66.3218 87.4955 66.1246 87.5343C66.0567 87.557 65.984 87.5925 65.9064 87.641C65.8385 87.6863 65.7609 87.7477 65.6736 87.8253C65.5863 87.8997 65.4926 87.9999 65.3923 88.126L65.4796 90.9388L66.3526 91.3753L63.7822 91.6032L64.4466 90.9291L64.7182 87.5537L63.6852 87.0833L65.3535 86.7681L65.3729 87.3743C65.4861 87.2385 65.6025 87.1269 65.7221 87.0397C65.8417 86.9524 65.95 86.8812 66.047 86.8263C66.1602 86.7648 66.2701 86.718 66.3768 86.6856C66.5708 86.6404 66.768 86.6226 66.9685 86.6323C67.0525 86.6355 67.1398 86.6452 67.2303 86.6614C67.3241 86.6775 67.4179 86.7034 67.5116 86.739C67.6086 86.7713 67.7024 86.8166 67.7929 86.8748C67.8834 86.9297 67.9707 86.9992 68.0548 87.0833L67.4195 88.2472ZM68.371 89.1202C68.371 88.7581 68.4276 88.4234 68.5407 88.1163C68.6571 87.8059 68.8172 87.5376 69.0208 87.3112C69.2278 87.0849 69.4719 86.9087 69.7531 86.7826C70.0377 86.6533 70.348 86.5886 70.6843 86.5886C71.0108 86.5886 71.3099 86.6501 71.5815 86.7729C71.853 86.8925 72.0891 87.0623 72.2895 87.2821C72.49 87.502 72.65 87.7655 72.7696 88.0726C72.8893 88.3798 72.9604 88.7193 72.983 89.0911C73.0057 89.4887 72.9636 89.8492 72.8569 90.1725C72.7535 90.4926 72.5999 90.7658 72.3962 90.9921C72.1925 91.2152 71.9484 91.3882 71.6639 91.511C71.3826 91.6339 71.0771 91.6953 70.7473 91.6953C70.4305 91.6953 70.1282 91.6387 69.8404 91.5256C69.5559 91.4092 69.3037 91.2411 69.0839 91.0212C68.8673 90.8014 68.6943 90.533 68.565 90.2162C68.4357 89.8961 68.371 89.5308 68.371 89.1202ZM69.564 89.2026C69.564 89.4871 69.6044 89.7441 69.6853 89.9737C69.7661 90.2032 69.8744 90.3989 70.0102 90.5605C70.146 90.7189 70.3028 90.8418 70.4806 90.9291C70.6584 91.0164 70.8459 91.06 71.0432 91.06C71.2404 91.06 71.4247 91.018 71.596 90.9339C71.7674 90.8466 71.9161 90.7254 72.0422 90.5702C72.1683 90.4118 72.2669 90.2226 72.338 90.0028C72.4091 89.7829 72.4447 89.5388 72.4447 89.2705C72.4447 89.0054 72.4091 88.7564 72.338 88.5237C72.2669 88.2876 72.1667 88.0823 72.0373 87.9077C71.9112 87.7332 71.7609 87.5957 71.5863 87.4955C71.4117 87.3953 71.221 87.3452 71.0141 87.3452C70.8298 87.3452 70.6503 87.3872 70.4757 87.4713C70.3044 87.5553 70.1508 87.6782 70.015 87.8398C69.8792 87.9983 69.7693 88.1923 69.6853 88.4218C69.6044 88.6514 69.564 88.9116 69.564 89.2026Z" fill="#6F4E37"/>
</svg>
