<svg width="406" height="71" viewBox="0 0 406 71" fill="none" xmlns="http://www.w3.org/2000/svg">
<rect x="14" y="21" width="43" height="13" fill="#7C1329"/>
<rect x="14" y="37" width="43" height="13" fill="#7C1329"/>
<path d="M55.5 18H14.5V6.5H56.5C64.7843 6.5 71.5 13.2157 71.5 21.5V33H60.5V23C60.5 20.2386 58.2614 18 55.5 18Z" fill="#7C1329"/>
<path d="M16 53H57V64.5H15C6.71573 64.5 0 57.7843 0 49.5V38H11V48C11 50.7614 13.2386 53 16 53Z" fill="#7C1329"/>
<path d="M109.841 52H98.2379V17.7593H110.075C113.475 17.7593 116.395 18.4447 118.836 19.8157C121.288 21.1755 123.172 23.1317 124.487 25.6841C125.802 28.2366 126.46 31.2906 126.46 34.8462C126.46 38.4129 125.797 41.4781 124.47 44.0417C123.155 46.6053 121.255 48.5726 118.769 49.9435C116.295 51.3145 113.319 52 109.841 52ZM104.441 46.6332H109.54C111.925 46.6332 113.915 46.1985 115.509 45.3291C117.103 44.4485 118.301 43.1389 119.103 41.4001C119.906 39.6501 120.307 37.4655 120.307 34.8462C120.307 32.2269 119.906 30.0534 119.103 28.3257C118.301 26.5869 117.114 25.2884 115.542 24.4302C113.982 23.5608 112.042 23.1261 109.724 23.1261H104.441V46.6332ZM141.404 52.5016C138.896 52.5016 136.723 51.9498 134.884 50.8464C133.045 49.7429 131.618 48.1992 130.604 46.2152C129.601 44.2312 129.099 41.9128 129.099 39.26C129.099 36.6073 129.601 34.2833 130.604 32.2882C131.618 30.293 133.045 28.7437 134.884 27.6403C136.723 26.5368 138.896 25.9851 141.404 25.9851C143.912 25.9851 146.086 26.5368 147.925 27.6403C149.764 28.7437 151.185 30.293 152.188 32.2882C153.202 34.2833 153.71 36.6073 153.71 39.26C153.71 41.9128 153.202 44.2312 152.188 46.2152C151.185 48.1992 149.764 49.7429 147.925 50.8464C146.086 51.9498 143.912 52.5016 141.404 52.5016ZM141.438 47.653C142.798 47.653 143.935 47.2796 144.848 46.5329C145.762 45.7749 146.442 44.7606 146.888 43.49C147.345 42.2193 147.574 40.8038 147.574 39.2433C147.574 37.6717 147.345 36.2506 146.888 34.9799C146.442 33.6981 145.762 32.6783 144.848 31.9203C143.935 31.1624 142.798 30.7834 141.438 30.7834C140.045 30.7834 138.885 31.1624 137.96 31.9203C137.046 32.6783 136.361 33.6981 135.904 34.9799C135.458 36.2506 135.235 37.6717 135.235 39.2433C135.235 40.8038 135.458 42.2193 135.904 43.49C136.361 44.7606 137.046 45.7749 137.96 46.5329C138.885 47.2796 140.045 47.653 141.438 47.653ZM168.165 52.5016C165.602 52.5016 163.4 51.9387 161.561 50.8129C159.733 49.6872 158.323 48.1323 157.331 46.1483C156.35 44.1532 155.86 41.8571 155.86 39.26C155.86 36.6519 156.361 34.3502 157.365 32.355C158.368 30.3487 159.783 28.7883 161.611 27.6737C163.45 26.5479 165.624 25.9851 168.132 25.9851C170.216 25.9851 172.061 26.3696 173.666 27.1387C175.282 27.8966 176.569 28.9722 177.528 30.3655C178.486 31.7476 179.033 33.3638 179.166 35.214H173.381C173.147 33.9768 172.59 32.9458 171.71 32.121C170.84 31.285 169.675 30.867 168.215 30.867C166.978 30.867 165.891 31.2014 164.955 31.8702C164.019 32.5278 163.289 33.4752 162.765 34.7124C162.252 35.9497 161.996 37.4321 161.996 39.1597C161.996 40.9097 162.252 42.4144 162.765 43.6739C163.278 44.9222 163.997 45.8864 164.922 46.5663C165.858 47.2351 166.956 47.5694 168.215 47.5694C169.107 47.5694 169.904 47.4022 170.606 47.0679C171.319 46.7223 171.916 46.2263 172.395 45.5799C172.874 44.9334 173.203 44.1476 173.381 43.2225H179.166C179.021 45.0393 178.486 46.6499 177.561 48.0543C176.636 49.4475 175.377 50.5399 173.783 51.3312C172.189 52.1115 170.316 52.5016 168.165 52.5016ZM187.77 43.9414L187.753 36.6351H188.723L197.952 26.3194H205.024L193.672 38.9591H192.418L187.77 43.9414ZM182.253 52V17.7593H188.305V52H182.253ZM198.37 52L190.01 40.3133L194.09 36.05L205.609 52H198.37ZM217.486 52.5016C214.911 52.5016 212.688 51.9666 210.815 50.8965C208.954 49.8154 207.521 48.2884 206.518 46.3155C205.515 44.3315 205.014 41.9964 205.014 39.3102C205.014 36.6686 205.515 34.3502 206.518 32.355C207.533 30.3487 208.948 28.7883 210.765 27.6737C212.582 26.5479 214.716 25.9851 217.168 25.9851C218.751 25.9851 220.245 26.2414 221.649 26.7541C223.065 27.2557 224.313 28.0359 225.394 29.0948C226.486 30.1537 227.345 31.5024 227.969 33.1408C228.593 34.7682 228.905 36.7076 228.905 38.9591V40.8149H207.856V36.7355H223.104C223.092 35.5763 222.842 34.5452 222.351 33.6424C221.861 32.7284 221.175 32.0095 220.295 31.4856C219.425 30.9618 218.411 30.6999 217.252 30.6999C216.015 30.6999 214.928 31.0008 213.992 31.6027C213.055 32.1934 212.325 32.9736 211.802 33.9434C211.289 34.9019 211.027 35.9552 211.016 37.1033V40.6644C211.016 42.158 211.289 43.4398 211.835 44.5098C212.381 45.5687 213.145 46.3824 214.125 46.9508C215.106 47.5081 216.254 47.7868 217.57 47.7868C218.45 47.7868 219.247 47.6642 219.96 47.419C220.674 47.1626 221.292 46.7892 221.816 46.2988C222.34 45.8084 222.736 45.2009 223.003 44.4764L228.654 45.1117C228.298 46.6053 227.618 47.9094 226.615 49.024C225.623 50.1275 224.352 50.9857 222.803 51.5987C221.253 52.2006 219.481 52.5016 217.486 52.5016ZM244.966 26.3194V31.0008H230.203V26.3194H244.966ZM233.847 20.1668H239.9V44.2758C239.9 45.0894 240.022 45.7136 240.268 46.1483C240.524 46.5719 240.858 46.8617 241.271 47.0177C241.683 47.1737 242.14 47.2518 242.642 47.2518C243.021 47.2518 243.366 47.2239 243.678 47.1682C244.002 47.1124 244.247 47.0623 244.414 47.0177L245.434 51.7492C245.111 51.8607 244.648 51.9833 244.046 52.117C243.455 52.2508 242.731 52.3288 241.873 52.3511C240.357 52.3957 238.991 52.1672 237.776 51.6656C236.562 51.1529 235.597 50.3615 234.884 49.2915C234.182 48.2215 233.836 46.884 233.847 45.2789V20.1668ZM258.207 17.7593H265.797L275.962 42.5704H276.364L286.529 17.7593H294.119V52H288.167V28.4762H287.85L278.387 51.8997H273.939L264.476 28.4261H264.159V52H258.207V17.7593ZM306.113 52.5183C304.486 52.5183 303.02 52.2285 301.716 51.6489C300.423 51.0582 299.398 50.1888 298.64 49.0407C297.893 47.8927 297.519 46.4771 297.519 44.7941C297.519 43.3451 297.787 42.1469 298.322 41.1995C298.857 40.252 299.587 39.4941 300.512 38.9257C301.437 38.3572 302.479 37.9281 303.639 37.6383C304.809 37.3373 306.018 37.12 307.267 36.9862C308.771 36.8302 309.992 36.6909 310.928 36.5683C311.864 36.4345 312.544 36.2339 312.968 35.9664C313.403 35.6877 313.62 35.2586 313.62 34.679V34.5787C313.62 33.3192 313.247 32.3439 312.5 31.6528C311.753 30.9618 310.677 30.6163 309.273 30.6163C307.791 30.6163 306.615 30.9395 305.745 31.586C304.887 32.2324 304.307 32.9959 304.006 33.8765L298.355 33.074C298.801 31.5135 299.537 30.2094 300.562 29.1617C301.588 28.1028 302.842 27.3114 304.324 26.7876C305.807 26.2526 307.445 25.9851 309.239 25.9851C310.477 25.9851 311.708 26.13 312.934 26.4198C314.16 26.7096 315.281 27.1888 316.295 27.8576C317.309 28.5152 318.123 29.4125 318.736 30.5494C319.36 31.6863 319.672 33.1074 319.672 34.8128V52H313.854V48.4723H313.653C313.286 49.1856 312.767 49.8544 312.098 50.4786C311.441 51.0916 310.61 51.5876 309.607 51.9666C308.615 52.3344 307.451 52.5183 306.113 52.5183ZM307.685 48.071C308.9 48.071 309.953 47.8314 310.845 47.3521C311.736 46.8617 312.422 46.2152 312.901 45.4127C313.391 44.6102 313.637 43.7352 313.637 42.7878V39.7616C313.447 39.9177 313.124 40.0626 312.667 40.1963C312.221 40.3301 311.719 40.4471 311.162 40.5474C310.605 40.6477 310.053 40.7369 309.507 40.8149C308.961 40.8929 308.487 40.9598 308.086 41.0155C307.183 41.1381 306.375 41.3388 305.662 41.6174C304.948 41.8961 304.385 42.2862 303.973 42.7878C303.561 43.2782 303.354 43.9135 303.354 44.6937C303.354 45.8084 303.761 46.6499 304.575 47.2183C305.389 47.7868 306.425 48.071 307.685 48.071ZM344.172 33.1074L338.654 33.7093C338.498 33.152 338.225 32.6281 337.835 32.1377C337.456 31.6473 336.944 31.2516 336.297 30.9506C335.651 30.6497 334.859 30.4992 333.923 30.4992C332.663 30.4992 331.605 30.7723 330.746 31.3185C329.899 31.8646 329.481 32.5724 329.492 33.4418C329.481 34.1886 329.754 34.796 330.312 35.2642C330.88 35.7323 331.816 36.1168 333.12 36.4178L337.501 37.3541C339.931 37.8779 341.736 38.7083 342.918 39.8452C344.11 40.9821 344.712 42.4701 344.723 44.3092C344.712 45.9254 344.239 47.3521 343.302 48.5893C342.377 49.8154 341.09 50.7739 339.44 51.465C337.791 52.156 335.896 52.5016 333.756 52.5016C330.613 52.5016 328.082 51.844 326.165 50.5287C324.248 49.2023 323.106 47.3577 322.738 44.9947L328.64 44.4262C328.907 45.5854 329.476 46.4604 330.345 47.0511C331.214 47.6419 332.346 47.9373 333.739 47.9373C335.177 47.9373 336.33 47.6419 337.2 47.0511C338.08 46.4604 338.521 45.7303 338.521 44.8609C338.521 44.1253 338.236 43.5178 337.668 43.0386C337.111 42.5593 336.241 42.1915 335.06 41.9351L330.679 41.0155C328.216 40.5028 326.394 39.639 325.212 38.4241C324.031 37.198 323.446 35.6487 323.457 33.7762C323.446 32.1934 323.875 30.8225 324.744 29.6633C325.625 28.4929 326.845 27.5901 328.406 26.9548C329.977 26.3083 331.788 25.9851 333.839 25.9851C336.849 25.9851 339.217 26.626 340.945 27.9078C342.684 29.1896 343.759 30.9228 344.172 33.1074ZM360.654 26.3194V31.0008H345.891V26.3194H360.654ZM349.536 20.1668H355.589V44.2758C355.589 45.0894 355.711 45.7136 355.956 46.1483C356.213 46.5719 356.547 46.8617 356.96 47.0177C357.372 47.1737 357.829 47.2518 358.33 47.2518C358.709 47.2518 359.055 47.2239 359.367 47.1682C359.69 47.1124 359.936 47.0623 360.103 47.0177L361.123 51.7492C360.799 51.8607 360.337 51.9833 359.735 52.117C359.144 52.2508 358.42 52.3288 357.561 52.3511C356.046 52.3957 354.68 52.1672 353.465 51.6656C352.25 51.1529 351.286 50.3615 350.573 49.2915C349.871 48.2215 349.525 46.884 349.536 45.2789V20.1668ZM374.926 52.5016C372.351 52.5016 370.128 51.9666 368.255 50.8965C366.394 49.8154 364.961 48.2884 363.958 46.3155C362.955 44.3315 362.454 41.9964 362.454 39.3102C362.454 36.6686 362.955 34.3502 363.958 32.355C364.973 30.3487 366.388 28.7883 368.205 27.6737C370.022 26.5479 372.156 25.9851 374.608 25.9851C376.191 25.9851 377.685 26.2414 379.089 26.7541C380.505 27.2557 381.753 28.0359 382.834 29.0948C383.927 30.1537 384.785 31.5024 385.409 33.1408C386.033 34.7682 386.345 36.7076 386.345 38.9591V40.8149H365.296V36.7355H380.544C380.533 35.5763 380.282 34.5452 379.791 33.6424C379.301 32.7284 378.615 32.0095 377.735 31.4856C376.865 30.9618 375.851 30.6999 374.692 30.6999C373.455 30.6999 372.368 31.0008 371.432 31.6027C370.495 32.1934 369.765 32.9736 369.242 33.9434C368.729 34.9019 368.467 35.9552 368.456 37.1033V40.6644C368.456 42.158 368.729 43.4398 369.275 44.5098C369.821 45.5687 370.585 46.3824 371.566 46.9508C372.546 47.5081 373.694 47.7868 375.01 47.7868C375.89 47.7868 376.687 47.6642 377.4 47.419C378.114 47.1626 378.732 46.7892 379.256 46.2988C379.78 45.8084 380.176 45.2009 380.443 44.4764L386.094 45.1117C385.738 46.6053 385.058 47.9094 384.055 49.024C383.063 50.1275 381.792 50.9857 380.243 51.5987C378.693 52.2006 376.921 52.5016 374.926 52.5016ZM389.582 52V26.3194H395.451V30.5995H395.718C396.186 29.1171 396.989 27.9746 398.126 27.1721C399.274 26.3585 400.583 25.9516 402.055 25.9516C402.389 25.9516 402.762 25.9683 403.175 26.0018C403.598 26.0241 403.949 26.0631 404.228 26.1188V31.6863C403.972 31.5971 403.565 31.5191 403.008 31.4522C402.461 31.3742 401.932 31.3352 401.419 31.3352C400.316 31.3352 399.324 31.5748 398.443 32.0541C397.574 32.5222 396.888 33.1743 396.387 34.0102C395.885 34.8462 395.635 35.8103 395.635 36.9026V52H389.582Z" fill="#7C1329"/>
</svg>
